PathFileType	4	(X/Y/Z)	C:/Users/beibeiliu/ov580/test_trc/capture2\sequence.31_training_dense_left.trc
DataRate	CameraRate	NumFrames	NumMarkers	Units	OrigDataRate	OrigDataStartFrame	OrigNumFrames
120	120	15	19	mm	120	251	400
Frame#	Time	ThumbCMC			ThumbMCP			ThumbIP			ThumbTip			IndexMCP			IndexPIP			IndexTip			MiddleMCP			MiddlePIP			MiddleTip			RingMCP			RingPIP			RingTip			PinkyMCP			PinkyPIP			PinkyTip			BackHand1			BackHand2			BackHand3	
		X0	Y0	Z0	X1	Y1	Z1	X2	Y2	Z2	X3	Y3	Z3	X4	Y4	Z4	X5	Y5	Z5	X6	Y6	Z6	X7	Y7	Z7	X8	Y8	Z8	X9	Y9	Z9	X10	Y10	Z10	X11	Y11	Z11	X12	Y12	Z12	X13	Y13	Z13	X14	Y14	Z14	X15	Y15	Z15	X16	Y16	Z16	X17	Y17	Z17	X18	Y18	Z18	
250	2.08333	-106.5	21.6546	20.2197	-105.222	-0.939762	-7.8391	-108.195	-2.32318	-36.5349	-121.107	5.86211	-53.6778	-85.9651	51.61	-41.5821	-90.4106	41.609	-70.289	-102.922	7.38308	-76.6451	-108.871	59.2291	-55.5654	-110.556	34.9588	-73.7981	-121.692	11.1191	-50.4046	-128.557	54.9643	-52.7351	-136.326	27.6096	-67.4897	-135.607	10.4357	-39.7202	-148.991	61.3183	-43.4709	-149.999	41.5197	-66.8299	-145.748	14.5773	-51.3492	-135.367	70.0321	0.958827	-142.729	65.3247	29.7532	-112.628	58.1319	21.3223	
251	2.09167	-103.814	18.0513	23.954	-105.358	-2.17939	-4.62174	-108.703	-3.17244	-34.6391	-123.972	10.021	-52.8165	-87.2218	51.6727	-43.0217	-88.1449	38.7755	-69.9366	-99.0668	11.1153	-76.0237	-105.414	58.6966	-52.6362	-110.625	38.6369	-74.6153	-119.293	11.1382	-52.4515	-127.882	56.2698	-55.6334	-131.077	29.0217	-68.5307	-135.453	11.2132	-38.9812	-148.142	60.7779	-41.9343	-148.233	44.8318	-68.1303	-141.726	13.9524	-53.1086	-133.406	69.8652	-0.438158	-142.284	66.7032	30.7881	-112.788	60.622	20.3329	
252	2.1	-106.102	19.5109	24.4505	-102.951	-1.25278	-8.27197	-106.61	-4.03795	-33.472	-123.377	8.02487	-53.614	-85.7045	50.9375	-38.3026	-88.7763	37.9537	-69.916	-100.069	9.25372	-76.3728	-105.721	61.0795	-52.6608	-106.679	40.9447	-74.9043	-116.918	8.93612	-53.5604	-126.694	56.809	-53.0855	-129.973	32.7063	-68.8762	-136.578	11.5511	-42.2593	-150.67	63.521	-44.981	-144.756	44.0981	-67.8707	-140.063	15.8094	-58.37	-134.587	67.7338	2.20016	-141.521	66.6006	31.0719	-110.226	59.4093	21.9187	
253	2.10833	-103.163	16.5418	26.7113	-104.967	-0.0250214	-5.05018	-105.341	-3.88922	-34.4746	-122.037	8.33053	-55.2816	-87.8683	53.1576	-41.3014	-83.4199	41.2527	-66.9111	-93.5641	12.2569	-77.564	-104.18	61.8109	-51.7437	-104.258	45.3601	-75.8857	-116.291	11.7264	-62.6396	-127.567	57.1476	-55.4147	-132.25	31.5477	-68.6191	-134.814	11.96	-38.707	-149.369	62.9507	-44.1576	-146.027	45.2346	-69.1556	-144.31	15.9509	-69.3648	-134.878	70.0008	-0.630077	-142.465	67.7571	28.3262	-108.078	56.6751	21.0116	
254	2.11667	-103.855	18.9352	21.4608	-102.889	-2.44546	-7.16219	-105.575	-4.13281	-33.2381	-122.993	10.5021	-55.2168	-84.5331	50.1905	-38.3407	-81.4135	39.7748	-67.6334	-94.0139	10.0996	-78.6738	-107.116	62.2437	-47.2257	-105.465	46.7919	-77.2062	-116.196	8.35513	-67.7877	-127.951	57.087	-52.2605	-129.85	28.3118	-68.0904	-135.38	10.4326	-39.8388	-151.442	61.371	-43.6007	-146.921	48.1209	-68.7492	-143.431	17.173	-75.6546	-133.063	68.0059	0.228454	-141.133	63.8403	29.2382	-108.908	55.7009	23.115	
255	2.125	-105.374	18.2135	21.3431	-104.239	-1.96029	-4.83422	-105.141	-5.52142	-33.3366	-122.55	9.17808	-54.1961	-85.426	49.9171	-37.969	-83.6986	39.3239	-69.8947	-94.3086	14.8181	-82.2692	-102.768	60.0751	-49.4679	-107.684	48.9982	-77.1783	-117.883	12.1806	-76.6126	-126.315	54.4429	-51.7012	-133.75	26.5878	-68.5895	-133.585	6.10369	-40.6704	-149.579	60.1937	-45.7071	-153.751	48.4576	-69.2354	-149.565	19.0409	-83.5861	-133.636	65.8337	0.231121	-140.75	63.491	29.8236	-111.76	56.4842	23.0352	
256	2.13333	-103.831	16.0027	25.196	-103.282	-3.98445	-4.9457	-106.949	-3.00754	-32.4671	-121.2	6.66027	-56.6048	-84.7866	47.1319	-36.7113	-79.3285	36.451	-69.614	-92.1935	12.7214	-84.5039	-109.778	61.1111	-48.1243	-108.373	50.7517	-79.0253	-116.056	16.2592	-85.9133	-127.786	51.2383	-54.9932	-134.292	25.9712	-69.4002	-135.555	4.3209	-43.654	-152.42	58.351	-43.5823	-150.544	49.3965	-68.9853	-151.632	28.1345	-87.9955	-135.76	64.8717	-0.701342	-141.273	64.4235	30.0774	-112.923	56.9482	22.2809	
257	2.14167	-102.599	14.4382	25.5709	-102.268	-4.47295	-5.87545	-107.149	-5.27678	-30.1582	-121.743	3.84571	-52.9437	-82.2156	46.9062	-41.2358	-82.7757	36.8592	-70.2821	-90.9295	16.2385	-86.0818	-104.488	60.6028	-49.0833	-109.565	49.5128	-81.9927	-113.51	18.7345	-92.7143	-130.161	52.3833	-50.7284	-135.538	26.3356	-70.0393	-133.486	2.32257	-46.7714	-153.567	56.3749	-43.2346	-154.541	48.7225	-69.5565	-158.306	35.7551	-93.1533	-135.009	63.8547	-1.76882	-141.982	64.713	30.5494	-111.344	55.4488	16.7138	
258	2.15	-103.683	16.0246	23.7236	-105.725	-4.2984	-1.39847	-104.831	-9.97407	-34.0244	-119.328	1.14071	-53.8353	-84.794	45.7774	-40.812	-80.9224	38.2388	-68.6883	-86.6544	18.5365	-88.6244	-109.93	61.5627	-48.9321	-106.565	51.6986	-81.8756	-117.075	23.507	-99.3938	-130.317	50.1182	-54.262	-132.846	23.1915	-69.9461	-136.44	-0.999964	-43.4703	-152.218	56.199	-45.2987	-158.281	50.7131	-70.6777	-160.066	42.755	-90.3099	-137.68	65.0548	0.744149	-139.229	63.2985	29.4274	-111.541	54.7646	19.0721	
259	2.15833	-101.905	14.8305	21.1479	-103.896	-5.89036	-5.00537	-106.12	-7.86456	-35.3079	-119.636	-2.04541	-56.7223	-85.2958	45.6329	-40.9981	-74.646	36.9349	-66.166	-79.5567	20.0362	-90.154	-108.187	60.7971	-49.2928	-107.112	56.6234	-78.6415	-111.225	29.5033	-105.428	-132.632	49.8992	-55.4205	-135.474	25.4979	-70.6364	-133.551	-0.979983	-45.2195	-152.253	54.3819	-41.2213	-159.789	50.7284	-67.1924	-158.422	47.2478	-92.8519	-138.84	66.4051	1.34328	-140.434	62.4912	29.6174	-106.405	55.1919	18.9032	
260	2.16667	-103.88	15.6711	21.4427	-103.561	-6.34404	-4.76737	-106.295	-10.0248	-32.6208	-120.249	-3.20772	-52.6167	-84.2221	44.3529	-42.9846	-78.6463	38.1887	-66.1134	-75.2305	23.2839	-91.6969	-107.22	58.8597	-48.6088	-105.407	56.8553	-78.1712	-107.789	37.2619	-108.586	-128.955	48.7128	-51.8337	-132.89	24.6191	-71.1695	-135.785	-0.546375	-47.4843	-153.611	54.1596	-47.9637	-156.646	51.0251	-65.0757	-158.188	51.0257	-93.6405	-139.205	64.4742	-0.0649723	-142.24	63.1988	28.5915	-112.267	54.8934	18.3934	
261	2.175	-105.039	14.9883	25.2749	-104.839	-7.7525	-3.94135	-109.044	-9.39782	-34.4622	-122.432	-2.04429	-53.926	-80.2473	40.5658	-40.5572	-72.1142	34.6656	-67.0314	-74.3248	27.3246	-93.3779	-107.012	57.7776	-50.3974	-107.943	55.9888	-80.2449	-109.478	44.1879	-106.505	-131.953	47.9411	-52.3646	-137.999	20.1833	-71.0247	-135.901	-2.78084	-46.5617	-152.784	52.3383	-43.8228	-157.58	48.2566	-65.256	-158.779	49.3783	-91.3695	-136.227	62.3568	-4.01752	-142.703	64.1181	25.4302	-106.496	53.2989	19.5931	
262	2.18333	-104.605	14.2263	24.7149	-106.521	-4.9642	-4.49804	-108.716	-11.782	-28.9607	-125.182	-1.48512	-55.8268	-83.961	40.3592	-43.3648	-71.316	33.1862	-67.2645	-70.5927	30.152	-94.6894	-108.36	53.7007	-49.4436	-105.386	53.9047	-79.1157	-108.48	47.1039	-109.563	-132.244	44.982	-54.8596	-137.671	16.4573	-69.5649	-136.217	-4.86599	-46.321	-155.558	51.7038	-46.8173	-159.82	46.5492	-68.9662	-160.785	50.8591	-86.8361	-133.385	61.6556	0.325989	-142.874	63.3496	29.9312	-111.149	52.4225	18.7695	
263	2.19167	-102.534	11.3434	25.9999	-103.429	-8.40441	-5.77385	-108.367	-11.54	-33.3749	-124.584	-0.365529	-52.1336	-81.1437	36.8975	-41.6132	-71.6604	33.1966	-66.8957	-65.7297	30.8643	-88.9642	-107.739	52.0033	-50.1651	-105.786	52.7797	-80.6806	-104.895	48.5713	-111.798	-128.82	42.7746	-53.8787	-138.488	18.0268	-69.9809	-136.662	-7.10991	-46.302	-153.394	48.2471	-44.9432	-156.838	43.6331	-68.4942	-161.807	49.4405	-89.5505	-136.503	60.6431	-2.58689	-142.434	61.2892	29.1658	-106.206	50.3323	15.7428	
264	2.2	-106.279	13.3145	25.7894	-105.514	-7.87262	-0.627015	-108.55	-9.68111	-34.8708	-123.795	0.112331	-51.3799	-83.9198	37.7112	-42.1212	-71.6007	31.933	-60.9073	-65.8052	31.9028	-86.5688	-108.647	52.5411	-54.1163	-102.979	49.976	-78.7692	-100.893	47.7629	-107.584	-131.687	42.5757	-52.9076	-135.315	14.8665	-69.4639	-137.35	-9.01448	-48.2248	-154.72	47.9485	-48.1797	-157.698	43.8313	-64.5923	-160.116	45.588	-85.6477	-132.766	58.6882	-1.66035	-140.461	60.3892	26.4836	-108.024	51.6821	19.2066	
